<svg width="21" height="22" viewBox="0 0 21 22" fill="none" xmlns="http://www.w3.org/2000/svg">
<path className="SVGMAIN"  d="M14.325 0.5H17.814C18.159 0.501442 18.5003 0.570819 18.8185 0.704172C19.1367 0.837525 19.4254 1.03224 19.6684 1.2772C19.9113 1.52217 20.1036 1.81258 20.2343 2.13185C20.3649 2.45113 20.4315 2.79302 20.43 3.138V6.65701C20.4315 7.00199 20.3649 7.34388 20.2343 7.66316C20.1036 7.98244 19.9113 8.27285 19.6684 8.51781C19.4254 8.76277 19.1367 8.95749 18.8185 9.09084C18.5003 9.22419 18.159 9.29357 17.814 9.29501H14.325C13.98 9.29357 13.6387 9.22419 13.3205 9.09084C13.0024 8.95749 12.7136 8.76277 12.4707 8.51781C12.2277 8.27285 12.0354 7.98244 11.9048 7.66316C11.7741 7.34388 11.7076 7.00199 11.709 6.65701V3.138C11.7076 2.79302 11.7741 2.45113 11.9048 2.13185C12.0354 1.81258 12.2277 1.52217 12.4707 1.2772C12.7136 1.03224 13.0024 0.837525 13.3205 0.704172C13.6387 0.570819 13.98 0.501442 14.325 0.5" fill="#C2C2C2" fill-opacity="0.5"/>
<path className="SVGMAIN" d="M14.719 21.5922C14.369 21.5908 14.0226 21.5204 13.6998 21.3851C13.3769 21.2497 13.0839 21.0521 12.8374 20.8035C12.591 20.5549 12.3959 20.2602 12.2634 19.9362C12.1308 19.6122 12.0634 19.2653 12.065 18.9152V15.3452C12.0634 14.9951 12.1308 14.6481 12.2634 14.3241C12.3959 14 12.5909 13.7052 12.8374 13.4566C13.0838 13.2079 13.3768 13.0102 13.6997 12.8747C14.0226 12.7393 14.3689 12.6688 14.719 12.6672H18.26C18.6101 12.6688 18.9565 12.7393 19.2794 12.8747C19.6022 13.0102 19.8952 13.2079 20.1417 13.4566C20.3881 13.7052 20.5832 14 20.7157 14.3241C20.8482 14.6481 20.9156 14.9951 20.914 15.3452V18.9162C20.9156 19.2663 20.8482 19.6132 20.7157 19.9372C20.5831 20.2612 20.3881 20.5559 20.1416 20.8045C19.8951 21.0531 19.6021 21.2507 19.2793 21.3861C18.9564 21.5214 18.6101 21.5918 18.26 21.5932L14.719 21.5922ZM2.65503 21.5922C1.94813 21.5893 1.27133 21.3058 0.77345 20.804C0.275569 20.3021 -0.00263043 19.6231 2.7111e-05 18.9162V15.3452C-0.00289672 14.6381 0.275153 13.9587 0.773035 13.4565C1.27092 12.9543 1.94787 12.6704 2.65503 12.6672H6.20003C6.9064 12.6715 7.58222 12.9559 8.07908 13.458C8.57594 13.9601 8.85322 14.6388 8.85003 15.3452V18.9162C8.85295 19.6223 8.57552 20.3008 8.07866 20.8025C7.58181 21.3042 6.90614 21.5883 6.20003 21.5922H2.65503ZM2.65503 9.60323C2.30484 9.60178 1.95836 9.53136 1.63539 9.39599C1.31243 9.26061 1.01929 9.06294 0.772741 8.81425C0.526187 8.56556 0.331045 8.27073 0.198461 7.94661C0.0658763 7.62248 -0.00155212 7.27541 2.7111e-05 6.92523V3.35522C-0.00142041 3.00512 0.0661053 2.65816 0.198749 2.33415C0.331392 2.01014 0.526555 1.71543 0.773095 1.46685C1.01964 1.21826 1.31272 1.02068 1.63563 0.885363C1.95853 0.750051 2.30492 0.679664 2.65503 0.678223L6.20003 0.678223C6.90631 0.682191 7.58213 0.966366 8.07902 1.46832C8.57591 1.97027 8.85322 2.64894 8.85003 3.35522V6.92523C8.85348 7.63169 8.57629 8.31061 8.07937 8.81278C7.58246 9.31495 6.90648 9.59926 6.20003 9.60323H2.65503Z" fill="#C2C2C2"/>
</svg>
