<svg width="21" height="22" viewBox="0 0 21 22" fill="none" xmlns="http://www.w3.org/2000/svg">
<g opacity="1">
<path className="SVGMAIN" d="M10.2986 21.1085C9.47859 21.1098 8.69149 20.7862 8.10957 20.2085L7.35757 19.4565C7.213 19.3124 7.04141 19.1983 6.85264 19.1208C6.66388 19.0432 6.46165 19.0037 6.25757 19.0045H5.20657C4.38497 19.0026 3.59754 18.6754 3.01658 18.0945C2.43562 17.5135 2.10842 16.7261 2.10657 15.9045V14.8405C2.10734 14.4283 1.9444 14.0326 1.65357 13.7405L0.910569 13.0005C0.329642 12.4198 0.00226038 11.6328 1.1661e-05 10.8115C-0.00223706 9.99011 0.32083 9.20128 0.898569 8.61748L1.65057 7.86448C1.79462 7.71991 1.9087 7.54832 1.98626 7.35955C2.06383 7.17078 2.10335 6.96856 2.10257 6.76448V5.71048C2.10442 4.88887 2.43162 4.10145 3.01258 3.52049C3.59354 2.93952 4.38097 2.61232 5.20257 2.61048H6.26657C6.47087 2.61155 6.67334 2.57196 6.86219 2.49402C7.05104 2.41607 7.2225 2.30133 7.36657 2.15648L8.10357 1.41348C8.68411 0.830954 9.47198 0.502451 10.2944 0.500014C11.1168 0.497577 11.9066 0.821404 12.4906 1.40048L13.2426 2.15248C13.3869 2.29684 13.5585 2.41112 13.7473 2.48871C13.9361 2.5663 14.1384 2.60565 14.3426 2.60448H15.3986C16.2202 2.60632 17.0076 2.93352 17.5886 3.51449C18.1695 4.09545 18.4967 4.88287 18.4986 5.70448V6.76848C18.4978 7.18069 18.6607 7.57635 18.9516 7.86848L19.6916 8.60848C20.2736 9.18677 20.6026 9.97219 20.6065 10.7926C20.6105 11.6131 20.289 12.4016 19.7126 12.9855C19.7026 12.9955 19.6926 13.0075 19.6826 13.0165L18.9506 13.7485C18.8065 13.893 18.6924 14.0646 18.6149 14.2534C18.5373 14.4422 18.4978 14.6444 18.4986 14.8485V15.9005C18.4967 16.7221 18.1695 17.5095 17.5886 18.0905C17.0076 18.6714 16.2202 18.9986 15.3986 19.0005H14.3386C14.1344 18.9999 13.9322 19.0396 13.7434 19.1173C13.5546 19.1951 13.3831 19.3093 13.2386 19.4535L12.4976 20.1935C12.2095 20.4836 11.8667 20.7138 11.4891 20.8705C11.1114 21.0272 10.7064 21.1074 10.2976 21.1065" fill="#C2C2C2"/>
<path opacity="0.6" d="M12.3155 14.0944C12.2327 14.0109 12.1665 13.9125 12.1205 13.8044C12.0756 13.6933 12.0542 13.5741 12.0575 13.4544C12.0542 13.334 12.0756 13.2141 12.1205 13.1024C12.1692 13.0014 12.2314 12.9075 12.3055 12.8234C12.4327 12.6956 12.5949 12.6084 12.7717 12.5728C12.9484 12.5372 13.1317 12.5548 13.2985 12.6234C13.4116 12.6646 13.5141 12.7305 13.5985 12.8164C13.7618 12.9883 13.8528 13.2163 13.8528 13.4534C13.8528 13.6904 13.7618 13.9185 13.5985 14.0904C13.4275 14.2569 13.1992 14.3517 12.9605 14.3554C12.7196 14.356 12.4881 14.2624 12.3155 14.0944ZM7.02049 14.0944C6.93644 14.0107 6.86974 13.9113 6.82422 13.8018C6.77871 13.6923 6.75528 13.5749 6.75528 13.4564C6.75528 13.3378 6.77871 13.2204 6.82422 13.1109C6.86974 13.0014 6.93644 12.902 7.02049 12.8184L12.3205 7.51836C12.4897 7.34982 12.7189 7.25539 12.9578 7.25586C13.1966 7.25633 13.4254 7.35165 13.594 7.52086C13.7625 7.69007 13.857 7.9193 13.8565 8.15813C13.856 8.39696 13.7607 8.62582 13.5915 8.79436L8.29149 14.0944C8.2079 14.1781 8.10861 14.2446 7.9993 14.2899C7.89 14.3352 7.77282 14.3586 7.65449 14.3586C7.53616 14.3586 7.41899 14.3352 7.30968 14.2899C7.20038 14.2446 7.10109 14.1781 7.01749 14.0944H7.02049ZM7.02049 8.79936C6.93473 8.7153 6.86666 8.61493 6.82029 8.50415C6.77392 8.39338 6.75019 8.27445 6.75049 8.15436C6.75578 7.91865 6.84927 7.6935 7.01249 7.52336C7.09956 7.43386 7.20593 7.36545 7.32349 7.32336C7.48649 7.25599 7.66594 7.23904 7.83868 7.27469C8.01141 7.31034 8.16949 7.39696 8.29249 7.52336C8.37603 7.60456 8.44384 7.70051 8.49249 7.80636C8.56535 7.97202 8.58524 8.15614 8.54944 8.33354C8.51364 8.51093 8.42389 8.67293 8.29249 8.79736C8.20835 8.88129 8.10809 8.94732 7.99776 8.99149C7.88743 9.03565 7.7693 9.05704 7.65049 9.05436C7.41462 9.05121 7.18874 8.95864 7.01849 8.79536L7.02049 8.79936Z" fill="white"/>
</g>
</svg>
