<svg width="21" height="24" viewBox="0 0 21 24" fill="none" xmlns="http://www.w3.org/2000/svg">
<g opacity="1">
<path className="SVGMAIN" opacity="1" d="M17.7659 13.247C17.3948 12.8561 17.1065 12.3943 16.9183 11.8893C16.7301 11.3842 16.646 10.8464 16.6709 10.308V9.86798C16.7454 8.47403 16.3072 7.10101 15.4389 6.00798C14.7597 5.16606 13.9008 4.48665 12.9251 4.01949C11.9494 3.55232 10.8816 3.30923 9.79988 3.30798L9.71388 3.30798C8.65751 3.31196 7.61464 3.54556 6.65752 3.99261C5.7004 4.43966 4.85192 5.08946 4.17088 5.89698C3.25004 7.01088 2.77823 8.42843 2.84788 9.87198V10.308C2.87787 10.8469 2.79607 11.3862 2.60763 11.892C2.41919 12.3977 2.12818 12.8591 1.75288 13.247C1.21475 13.9195 0.946311 14.7683 0.999878 15.628C0.991256 16.5253 1.30735 17.3954 1.88988 18.078C2.67386 18.9136 3.73767 19.4318 4.87888 19.534C6.49973 19.7113 8.12937 19.7961 9.75988 19.788C11.4019 19.788 13.0209 19.672 14.6409 19.534C15.7817 19.4315 16.8451 18.9133 17.6289 18.078C18.211 17.3952 18.527 16.5252 18.5189 15.628C18.5724 14.7683 18.304 13.9195 17.7659 13.247Z" fill="#C2C2C2"/>
<path className="SVGMAIN" d="M11.8287 21.062C10.4412 20.952 9.04716 20.952 7.65968 21.062C7.21868 21.163 6.74268 21.4 6.74268 21.919C6.76227 22.1618 6.83705 22.3969 6.9613 22.6064C7.08556 22.8159 7.25601 22.9943 7.45968 23.128C7.97315 23.5274 8.58178 23.7862 9.22567 23.879C9.5705 23.9247 9.91985 23.9247 10.2647 23.879C10.9081 23.7863 11.5164 23.5278 12.0297 23.129C12.2327 22.9948 12.4025 22.8161 12.526 22.6064C12.6496 22.3967 12.7237 22.1616 12.7427 21.919C12.7427 21.4 12.2687 21.163 11.8287 21.062Z" fill="#DADADA"/>
</g>
<path d="M16.6368 8.964C18.9741 8.964 20.8688 7.06927 20.8688 4.732C20.8688 2.39473 18.9741 0.5 16.6368 0.5C14.2995 0.5 12.4048 2.39473 12.4048 4.732C12.4048 7.06927 14.2995 8.964 16.6368 8.964Z" fill="#341EFF"/>
<path d="M15.9666 4.92501C16.2226 4.71167 16.4266 4.53434 16.5786 4.39301C16.7306 4.24901 16.8573 4.09967 16.9586 3.94501C17.0599 3.79034 17.1106 3.63834 17.1106 3.48901C17.1106 3.35301 17.0786 3.24634 17.0146 3.16901C16.9506 3.09167 16.8519 3.05301 16.7186 3.05301C16.5853 3.05301 16.4826 3.09834 16.4106 3.18901C16.3386 3.27701 16.3013 3.39834 16.2986 3.55301H15.7546C15.7653 3.23301 15.8599 2.99034 16.0386 2.82501C16.2199 2.65967 16.4493 2.57701 16.7266 2.57701C17.0306 2.57701 17.2639 2.65834 17.4266 2.82101C17.5893 2.98101 17.6706 3.19301 17.6706 3.45701C17.6706 3.66501 17.6146 3.86367 17.5026 4.05301C17.3906 4.24234 17.2626 4.40767 17.1186 4.54901C16.9746 4.68767 16.7866 4.85567 16.5546 5.05301H17.7346V5.51701H15.7586V5.10101L15.9666 4.92501Z" fill="white"/>
</svg>
