<svg width="15" height="15" viewBox="0 0 15 15" fill="none" xmlns="http://www.w3.org/2000/svg">
<g opacity="0.5">
<path d="M14.2269 13.778L11.7639 11.37L11.7059 11.282C11.5973 11.1748 11.4509 11.1147 11.2984 11.1147C11.1459 11.1147 10.9994 11.1748 10.8909 11.282C9.86849 12.212 8.54822 12.7474 7.16683 12.7921C5.78545 12.8368 4.43332 12.388 3.35291 11.526C2.28348 10.6803 1.5663 9.46747 1.3405 8.12286C1.11471 6.77825 1.39639 5.3977 2.13091 4.24903C2.88304 3.09153 4.02415 2.24101 5.3483 1.85097C6.67245 1.46093 8.09241 1.55707 9.3519 2.12203C10.604 2.66583 11.6116 3.65216 12.1821 4.89232C12.7525 6.13249 12.8458 7.53944 12.4439 8.84402C12.4141 8.93939 12.4104 9.04103 12.4333 9.13831C12.4561 9.23558 12.5047 9.32493 12.5739 9.39702C12.6443 9.47017 12.7323 9.52389 12.8296 9.55297C12.9268 9.58206 13.0299 9.58552 13.1289 9.56302C13.2275 9.54148 13.3186 9.49437 13.3932 9.42644C13.4678 9.35851 13.5232 9.27215 13.5539 9.17602C14.0353 7.62667 13.9373 5.95515 13.2779 4.47273C12.6186 2.99032 11.4429 1.79807 9.9699 1.11803C8.4873 0.41362 6.80408 0.253438 5.21523 0.665554C3.62637 1.07767 2.23322 2.03579 1.27991 3.37203C0.347316 4.69649 -0.0683823 6.31643 0.111229 7.9263C0.290839 9.53617 1.05334 11.0247 2.25491 12.111C3.47199 13.2148 5.03788 13.8563 6.67952 13.9237C8.32117 13.9912 9.9344 13.4802 11.2379 12.48L13.4189 14.612C13.5283 14.7175 13.6744 14.7765 13.8264 14.7765C13.9784 14.7765 14.1245 14.7175 14.2339 14.612C14.2869 14.5597 14.3289 14.4975 14.3576 14.4288C14.3863 14.3601 14.4011 14.2864 14.4011 14.212C14.4011 14.1376 14.3863 14.0639 14.3576 13.9952C14.3289 13.9266 14.2869 13.8643 14.2339 13.812L14.2269 13.778Z" fill="black" fill-opacity="0.5"/>
</g>
</svg>
