<svg width="21" height="6" viewBox="0 0 21 6" fill="none" xmlns="http://www.w3.org/2000/svg">
<path className='SearchIcon1' opacity="0.5" d="M2.07019 5.03701C3.19519 5.03701 4.10718 4.12501 4.10718 3.00001C4.10718 1.87501 3.19519 0.963013 2.07019 0.963013C0.945193 0.963013 0.0332031 1.87501 0.0332031 3.00001C0.0332031 4.12501 0.945193 5.03701 2.07019 5.03701Z" fill="black"/>
<path className='SearchIcon1' opacity="0.5" d="M10.2172 5.03701C11.3422 5.03701 12.2542 4.12501 12.2542 3.00001C12.2542 1.87501 11.3422 0.963013 10.2172 0.963013C9.09217 0.963013 8.18018 1.87501 8.18018 3.00001C8.18018 4.12501 9.09217 5.03701 10.2172 5.03701Z" fill="black"/>
<path className='SearchIcon1' opacity="0.5" d="M18.3642 5.03701C19.4892 5.03701 20.4012 4.12501 20.4012 3.00001C20.4012 1.87501 19.4892 0.963013 18.3642 0.963013C17.2392 0.963013 16.3271 1.87501 16.3271 3.00001C16.3271 4.12501 17.2392 5.03701 18.3642 5.03701Z" fill="black"/>
</svg>
