<svg width="26" height="14" viewBox="0 0 26 14" fill="none" xmlns="http://www.w3.org/2000/svg">
<path className='SearchIcon1' opacity="0.5" d="M2.5201 7.40696C2.52089 6.35297 2.93994 5.34238 3.68523 4.59709C4.43051 3.85181 5.44111 3.43276 6.4951 3.43196H11.5361V0.991967H6.4961C5.64687 0.981364 4.80398 1.13947 4.01631 1.45713C3.22865 1.77478 2.5119 2.24565 1.90761 2.84244C1.30333 3.43922 0.823543 4.15004 0.496081 4.93368C0.16862 5.71731 0 6.55816 0 7.40746C0 8.25676 0.16862 9.09761 0.496081 9.88124C0.823543 10.6649 1.30333 11.3757 1.90761 11.9725C2.5119 12.5693 3.22865 13.0401 4.01631 13.3578C4.80398 13.6754 5.64687 13.8336 6.4961 13.823H11.5371V11.383H6.4961C5.44176 11.3824 4.43076 10.9634 3.68523 10.2178C2.9397 9.4723 2.52063 8.4613 2.5201 7.40696ZM7.4121 8.66596H18.4121V6.14596H7.4121V8.66596ZM19.3301 0.990967H14.2861V3.43096H19.3301C20.3845 3.43096 21.3957 3.84981 22.1412 4.59536C22.8868 5.34091 23.3056 6.35209 23.3056 7.40646C23.3056 8.46083 22.8868 9.47201 22.1412 10.2176C21.3957 10.9631 20.3845 11.382 19.3301 11.382H14.2861V13.822H19.3301C21.0177 13.8009 22.6291 13.1157 23.815 11.9148C25.001 10.714 25.666 9.09422 25.666 7.40646C25.666 5.71871 25.001 4.09892 23.815 2.89808C22.6291 1.69723 21.0177 1.01204 19.3301 0.990967Z" fill="black" />
</svg>
