<svg width="20" height="22" viewBox="0 0 20 22" fill="none" xmlns="http://www.w3.org/2000/svg">
<path className='SVGMAIN' d="M19.3014 13.247C19.0901 12.9082 18.7967 12.6282 18.4484 12.433C18.1701 12.2827 17.9428 12.0529 17.7954 11.773C17.6703 11.5599 17.5885 11.3241 17.5546 11.0793C17.5208 10.8345 17.5357 10.5854 17.5984 10.3463C17.6612 10.1072 17.7705 9.88289 17.9201 9.68618C18.0698 9.48947 18.2568 9.32425 18.4704 9.2C18.7176 9.06418 18.9347 8.87972 19.1087 8.65773C19.2826 8.43574 19.4098 8.18083 19.4826 7.90835C19.5554 7.63588 19.5723 7.35149 19.5322 7.07232C19.4921 6.79315 19.3959 6.52499 19.2494 6.284L18.5434 5.068C18.2525 4.57434 17.7787 4.21527 17.2248 4.06869C16.6708 3.92211 16.0814 3.99983 15.5844 4.285C15.1333 4.51999 14.6105 4.57733 14.1191 4.4457C13.6278 4.31408 13.2037 4.00305 12.9304 3.574C12.7605 3.30284 12.6762 2.98678 12.6884 2.667C12.7107 2.28086 12.6102 1.89758 12.4014 1.572C12.2065 1.24892 11.9324 0.980911 11.605 0.793326C11.2776 0.605741 10.9077 0.504782 10.5304 0.5H9.04542C8.67015 0.509897 8.30325 0.613077 7.97783 0.80023C7.65241 0.987383 7.37871 1.25262 7.18142 1.572C6.97081 1.89597 6.86759 2.27805 6.88642 2.664C6.89869 2.98378 6.81436 3.29984 6.64442 3.571C6.37303 3.99905 5.95085 4.30964 5.46141 4.4413C4.97198 4.57297 4.45095 4.51612 4.00142 4.282C3.50269 3.99655 2.9117 3.91867 2.35604 4.06517C1.80038 4.21166 1.32461 4.57077 1.03142 5.065L0.325423 6.281C0.180692 6.52257 0.0858775 6.79071 0.0465885 7.06956C0.00729938 7.34841 0.0243337 7.6323 0.0966839 7.90446C0.169034 8.17661 0.29523 8.43149 0.467808 8.65401C0.640385 8.87654 0.855839 9.0622 1.10142 9.2C1.53281 9.45174 1.84701 9.86399 1.97536 10.3467C2.10372 10.8294 2.03579 11.3432 1.78642 11.776C1.63219 12.0542 1.40232 12.283 1.12342 12.436C0.773854 12.6256 0.48271 12.907 0.281423 13.25C0.093793 13.5707 -0.00342923 13.9362 9.23817e-05 14.3078C0.003614 14.6793 0.107748 15.0429 0.301423 15.36L1.03142 16.6C1.22545 16.9234 1.49935 17.1914 1.82681 17.3784C2.15428 17.5655 2.52432 17.6652 2.90142 17.668C3.29416 17.6652 3.67918 17.5586 4.01742 17.359C4.29588 17.1893 4.6187 17.1068 4.94442 17.122C5.44797 17.1237 5.93134 17.3202 6.29332 17.6702C6.6553 18.0203 6.86783 18.4968 6.88642 19C6.88898 19.2833 6.94794 19.5632 7.05986 19.8235C7.17179 20.0837 7.33443 20.3191 7.5383 20.5158C7.74218 20.7125 7.98319 20.8666 8.24728 20.9691C8.51136 21.0717 8.79323 21.1206 9.07642 21.113H10.5084C10.7909 21.1195 11.0718 21.0698 11.3348 20.9667C11.5979 20.8637 11.8378 20.7094 12.0406 20.5127C12.2435 20.3161 12.4052 20.0811 12.5164 19.8214C12.6277 19.5617 12.6861 19.2825 12.6884 19C12.7117 18.4975 12.9265 18.023 13.2889 17.6741C13.6512 17.3252 14.1334 17.1283 14.6364 17.124C14.9619 17.1115 15.2839 17.1938 15.5634 17.361C15.8087 17.5085 16.0808 17.6057 16.364 17.6472C16.6471 17.6886 16.9357 17.6734 17.2129 17.6024C17.4901 17.5314 17.7505 17.4061 17.9789 17.2337C18.2073 17.0612 18.3992 16.8452 18.5434 16.598L19.2804 15.361C19.4724 15.0428 19.5755 14.679 19.5792 14.3074C19.5829 13.9358 19.487 13.57 19.3014 13.248" fill="#C2C2C2"/>
<path d="M9.8035 13.7209C9.41599 13.7277 9.03097 13.6578 8.67058 13.5152C8.3102 13.3726 7.98157 13.1601 7.70359 12.89C7.42562 12.62 7.20379 12.2976 7.05086 11.9415C6.89793 11.5853 6.81692 11.2025 6.8125 10.8149C6.8168 10.4269 6.89765 10.0435 7.05041 9.68679C7.20317 9.33006 7.42484 9.00698 7.7027 8.73608C7.98057 8.46519 8.30917 8.25179 8.66967 8.10814C9.03017 7.96449 9.41547 7.8934 9.8035 7.89895C10.1922 7.88876 10.579 7.95652 10.9411 8.09823C11.3032 8.23994 11.6332 8.45273 11.9117 8.72405C12.1903 8.99537 12.4116 9.31972 12.5628 9.67797C12.7139 10.0362 12.7918 10.4211 12.7918 10.8099C12.7918 11.1988 12.7139 11.5837 12.5628 11.9419C12.4116 12.3002 12.1903 12.6245 11.9117 12.8958C11.6332 13.1672 11.3032 13.38 10.9411 13.5217C10.579 13.6634 10.1922 13.7311 9.8035 13.7209Z" fill="white"/>
</svg>
