<svg width="21" height="22" viewBox="0 0 21 22" fill="none" xmlns="http://www.w3.org/2000/svg">
<path className="SVGMAIN" d="M15.123 0.5H5.5C1.988 0.5 0 2.488 0 6V15.618C0 19.126 1.988 21.118 5.5 21.118H15.127C18.635 21.118 20.614 19.13 20.614 15.618V6C20.614 2.492 18.635 0.5 15.127 0.5" fill="#C2C2C2"/>
<path d="M5.53291 8.09399C5.30588 8.09558 5.08873 8.18709 4.92903 8.34847C4.76934 8.50986 4.68011 8.72796 4.68091 8.95499V16.036C4.68091 16.2632 4.77115 16.481 4.93178 16.6416C5.0924 16.8023 5.31026 16.8925 5.53741 16.8925C5.76457 16.8925 5.98243 16.8023 6.14305 16.6416C6.30368 16.481 6.39391 16.2632 6.39391 16.036V8.95499C6.39405 8.84189 6.37186 8.72987 6.32864 8.62535C6.28542 8.52083 6.222 8.42586 6.14203 8.34588C6.06205 8.2659 5.96708 8.20249 5.86256 8.15927C5.75804 8.11604 5.64602 8.09386 5.53291 8.09399Z" fill="white"/>
<path d="M10.342 4.71411C10.115 4.7157 9.89781 4.80721 9.73811 4.96859C9.57842 5.12997 9.4892 5.34807 9.49 5.57511V16.0361C9.49 16.2633 9.58023 16.4811 9.74086 16.6417C9.90148 16.8024 10.1193 16.8926 10.3465 16.8926C10.5737 16.8926 10.7915 16.8024 10.9521 16.6417C11.1128 16.4811 11.203 16.2633 11.203 16.0361V5.57511C11.2031 5.46201 11.1809 5.34999 11.1377 5.24547C11.0945 5.14095 11.0311 5.04598 10.9511 4.966C10.8711 4.88602 10.7762 4.82261 10.6716 4.77938C10.5671 4.73616 10.4551 4.71398 10.342 4.71411Z" fill="white"/>
<path d="M15.0861 11.8311C14.973 11.8309 14.861 11.8531 14.7565 11.8963C14.6519 11.9395 14.557 12.003 14.477 12.0829C14.397 12.1629 14.3336 12.2579 14.2904 12.3624C14.2471 12.4669 14.225 12.579 14.2251 12.6921V16.0311C14.2251 16.2582 14.3153 16.4761 14.476 16.6367C14.6366 16.7973 14.8544 16.8876 15.0816 16.8876C15.3088 16.8876 15.5266 16.7973 15.6872 16.6367C15.8479 16.4761 15.9381 16.2582 15.9381 16.0311V12.6921C15.9389 12.465 15.8497 12.2469 15.69 12.0855C15.5303 11.9241 15.3131 11.8326 15.0861 11.8311Z" fill="white"/>
</svg>
