<svg width="21" height="20" viewBox="0 0 21 20" fill="none" xmlns="http://www.w3.org/2000/svg">
<path className="SVGMAIN"  d="M7.573 12.7195C3.489 12.7195 0 13.3505 0 15.8725C0 18.3945 3.467 19.0495 7.573 19.0495C11.658 19.0495 15.146 18.4185 15.146 15.8965C15.146 13.3745 11.68 12.7195 7.573 12.7195Z" fill="#C2C2C2"/>
<path className="SVGMAIN"  d="M7.57301 10.3155C8.22494 10.3246 8.87222 10.2046 9.47758 9.96248C10.0829 9.72034 10.6344 9.3608 11.1002 8.90459C11.566 8.44837 11.9369 7.9045 12.1915 7.30431C12.4462 6.70411 12.5796 6.05946 12.584 5.40748C12.5795 4.75559 12.446 4.11105 12.1913 3.51097C11.9365 2.91089 11.5656 2.36714 11.0998 1.91103C10.634 1.45492 10.0826 1.09547 9.47735 0.853388C8.87206 0.611303 8.22485 0.491366 7.57301 0.500483C6.92112 0.491499 6.2739 0.611561 5.6686 0.853756C5.06331 1.09595 4.5119 1.45549 4.04614 1.91168C3.58038 2.36787 3.20947 2.91169 2.95475 3.51182C2.70004 4.11195 2.56657 4.75655 2.56201 5.40848C2.5667 6.06033 2.70027 6.70482 2.95504 7.30484C3.20981 7.90486 3.58075 8.44856 4.0465 8.90464C4.51224 9.36072 5.0636 9.72017 5.66883 9.96231C6.27406 10.2044 6.92121 10.3245 7.57301 10.3155Z" fill="#C2C2C2"/>
<path className="SVGMAIN"  d="M14.602 5.49738C14.6058 6.8398 14.1978 8.1511 13.433 9.25438C13.4158 9.28008 13.4053 9.30974 13.4027 9.34057C13.4 9.3714 13.4052 9.4024 13.4178 9.43067C13.4304 9.45894 13.45 9.48355 13.4746 9.50222C13.4993 9.52088 13.5283 9.53297 13.559 9.53738C13.7498 9.56867 13.9426 9.58638 14.136 9.59038C15.0764 9.63229 16.0034 9.35467 16.766 8.80269C17.5286 8.25071 18.082 7.45687 18.336 6.55038C18.4996 5.92942 18.5176 5.27905 18.3885 4.65001C18.2594 4.02096 17.9867 3.43026 17.5916 2.92399C17.1966 2.41772 16.6899 2.00958 16.1111 1.73141C15.5323 1.45324 14.8971 1.31257 14.255 1.32038C13.9719 1.32047 13.6895 1.34861 13.412 1.40438C13.3725 1.40953 13.3365 1.43 13.312 1.46138C13.3023 1.48244 13.2992 1.50594 13.3032 1.52878C13.3071 1.55162 13.3178 1.57274 13.334 1.58938C14.1611 2.72425 14.6052 4.09308 14.602 5.49738Z" fill="#C2C2C2"/>
<path className="SVGMAIN"  d="M20.3831 13.0405C20.1073 12.6081 19.7341 12.2462 19.2934 11.9839C18.8527 11.7215 18.3567 11.5659 17.8451 11.5295C16.5729 11.2869 15.2791 11.1757 13.9841 11.1975C13.9752 11.1981 13.9668 11.2014 13.9598 11.207C13.9528 11.2125 13.9477 11.22 13.9451 11.2285C13.9439 11.2405 13.9466 11.2526 13.953 11.2629C13.9593 11.2732 13.9688 11.2812 13.9801 11.2855C14.7021 11.6345 17.4921 13.1555 17.1451 16.3625C17.1408 16.3951 17.144 16.4282 17.1547 16.4594C17.1653 16.4905 17.1829 16.5187 17.2063 16.5419C17.2296 16.565 17.258 16.5824 17.2892 16.5928C17.3204 16.6031 17.3536 16.6061 17.3861 16.6015C18.0731 16.5015 19.8391 16.1335 20.3861 14.9765C20.5357 14.6759 20.6136 14.3448 20.6136 14.009C20.6136 13.6733 20.5357 13.3421 20.3861 13.0415" fill="#C2C2C2"/>
</svg>
